<svg xmlns="http://www.w3.org/2000/svg" width="805" height="600"><rect width="805" height="600" x="0" y="0" fill="#FFFFFF" id="background"/><g id="viz"><g transform="translate(0,0)"><g transform="translate(70,50)"><g class="bars"><rect id="undefined - 2026-03-02" x="0.9985422740524541" y="156.25" height="343.75" width="51.616954474097334" fill="#1f77b4"/><rect id="undefined - 2026-03-03" x="53.61403902220226" y="190.625" height="309.375" width="51.616954474097334" fill="#1f77b4"/><rect id="undefined - 2026-03-04" x="106.22953577035207" y="144.37499999999997" height="355.625" width="51.616954474097334" fill="#1f77b4"/><rect id="undefined - 2026-03-05" x="158.84503251850188" y="106.25000000000001" height="393.75" width="51.616954474097334" fill="#1f77b4"/><rect id="undefined - 2026-03-06" x="211.4605292666517" y="206.25" height="293.75" width="51.616954474097334" fill="#1f77b4"/><rect id="undefined - 2026-03-07" x="264.07602601480147" y="75.00000000000001" height="425" width="51.616954474097334" fill="#1f77b4"/><rect id="undefined - 2026-03-08" x="316.6915227629513" y="205.625" height="294.375" width="51.616954474097334" fill="#1f77b4"/><rect id="undefined - 2026-03-09" x="369.30701951110115" y="146.87499999999997" height="353.125" width="51.616954474097334" fill="#1f77b4"/><rect id="undefined - 2026-03-10" x="421.9225162592509" y="247.5" height="252.5" width="51.616954474097334" fill="#1f77b4"/><rect id="undefined - 2026-03-11" x="474.5380130074007" y="108.75000000000001" height="391.25" width="51.616954474097334" fill="#1f77b4"/><rect id="undefined - 2026-03-12" x="527.1535097555504" y="206.25" height="293.75" width="51.616954474097334" fill="#1f77b4"/><rect id="undefined - 2026-03-13" x="579.7690065037004" y="56.87500000000001" height="443.125" width="51.616954474097334" fill="#1f77b4"/><rect id="undefined - 2026-03-14" x="632.3845032518502" y="83.74999999999999" height="416.25" width="51.616954474097334" fill="#1f77b4"/></g><g id="xAxis" transform="translate(0,500)" fill="none" font-size="10" font-family="sans-serif" text-anchor="middle"><path class="domain" stroke="currentColor" d="M0,0H685"/><g class="tick" opacity="1" transform="translate(26.80701951110112,0)"><line stroke="currentColor" y2="6"/><text fill="currentColor" y="9" dy="0.71em">2026-03-02</text></g><g class="tick" opacity="1" transform="translate(79.42251625925093,0)"><line stroke="currentColor" y2="6"/><text fill="currentColor" y="9" dy="0.71em">2026-03-03</text></g><g class="tick" opacity="1" transform="translate(132.03801300740074,0)"><line stroke="currentColor" y2="6"/><text fill="currentColor" y="9" dy="0.71em">2026-03-04</text></g><g class="tick" opacity="1" transform="translate(184.65350975555054,0)"><line stroke="currentColor" y2="6"/><text fill="currentColor" y="9" dy="0.71em">2026-03-05</text></g><g class="tick" opacity="1" transform="translate(237.26900650370035,0)"><line stroke="currentColor" y2="6"/><text fill="currentColor" y="9" dy="0.71em">2026-03-06</text></g><g class="tick" opacity="1" transform="translate(289.88450325185016,0)"><line stroke="currentColor" y2="6"/><text fill="currentColor" y="9" dy="0.71em">2026-03-07</text></g><g class="tick" opacity="1" transform="translate(342.5,0)"><line stroke="currentColor" y2="6"/><text fill="currentColor" y="9" dy="0.71em">2026-03-08</text></g><g class="tick" opacity="1" transform="translate(395.11549674814984,0)"><line stroke="currentColor" y2="6"/><text fill="currentColor" y="9" dy="0.71em">2026-03-09</text></g><g class="tick" opacity="1" transform="translate(447.7309934962996,0)"><line stroke="currentColor" y2="6"/><text fill="currentColor" y="9" dy="0.71em">2026-03-10</text></g><g class="tick" opacity="1" transform="translate(500.3464902444494,0)"><line stroke="currentColor" y2="6"/><text fill="currentColor" y="9" dy="0.71em">2026-03-11</text></g><g class="tick" opacity="1" transform="translate(552.9619869925991,0)"><line stroke="currentColor" y2="6"/><text fill="currentColor" y="9" dy="0.71em">2026-03-12</text></g><g class="tick" opacity="1" transform="translate(605.5774837407491,0)"><line stroke="currentColor" y2="6"/><text fill="currentColor" y="9" dy="0.71em">2026-03-13</text></g><g class="tick" opacity="1" transform="translate(658.1929804888989,0)"><line stroke="currentColor" y2="6"/><text fill="currentColor" y="9" dy="0.71em">2026-03-14</text></g><text x="685" y="-4" text-anchor="end" style="font-family: Arial, sans-serif; font-size: 12px; fill: rgb(123, 123, 123); font-weight: bold;">Fecha</text></g><g id="yAxis" fill="none" font-size="10" font-family="sans-serif" text-anchor="end"><path class="domain" stroke="currentColor" d="M-6,500H0V0H-6"/><g class="tick" opacity="1" transform="translate(0,500)"><line stroke="currentColor" x2="-6"/><text fill="currentColor" x="-9" dy="0.32em">0</text></g><g class="tick" opacity="1" transform="translate(0,437.5)"><line stroke="currentColor" x2="-6"/><text fill="currentColor" x="-9" dy="0.32em">500</text></g><g class="tick" opacity="1" transform="translate(0,375)"><line stroke="currentColor" x2="-6"/><text fill="currentColor" x="-9" dy="0.32em">1,000</text></g><g class="tick" opacity="1" transform="translate(0,312.5)"><line stroke="currentColor" x2="-6"/><text fill="currentColor" x="-9" dy="0.32em">1,500</text></g><g class="tick" opacity="1" transform="translate(0,250)"><line stroke="currentColor" x2="-6"/><text fill="currentColor" x="-9" dy="0.32em">2,000</text></g><g class="tick" opacity="1" transform="translate(0,187.5)"><line stroke="currentColor" x2="-6"/><text fill="currentColor" x="-9" dy="0.32em">2,500</text></g><g class="tick" opacity="1" transform="translate(0,125)"><line stroke="currentColor" x2="-6"/><text fill="currentColor" x="-9" dy="0.32em">3,000</text></g><g class="tick" opacity="1" transform="translate(0,62.5)"><line stroke="currentColor" x2="-6"/><text fill="currentColor" x="-9" dy="0.32em">3,500</text></g><g class="tick" opacity="1" transform="translate(0,0)"><line stroke="currentColor" x2="-6"/><text fill="currentColor" x="-9" dy="0.32em">4,000</text></g><text x="4" text-anchor="start" dominant-baseline="hanging" style="font-family: Arial, sans-serif; font-size: 12px; fill: rgb(123, 123, 123); font-weight: bold;">Volumen (ml) [sum]</text></g></g><text y="4" x="4" style="font-family: Arial, sans-serif; font-size: 12px; fill: black; font-weight: bold; dominant-baseline: hanging;"/></g></g></svg>