<svg xmlns="http://www.w3.org/2000/svg" width="805" height="600"><rect width="805" height="600" x="0" y="0" fill="#FFFFFF" id="background"/><g id="viz"><g transform="translate(0,0)"><g transform="translate(80,40)"><g class="bars"><rect id="undefined - 2026-01-20" x="0.9985207100592106" y="159.375" height="350.625" width="22.242909610283615" fill="#1f77b4"/><rect id="undefined - 2026-01-21" x="24.239951030401997" y="194.4375" height="315.5625" width="22.242909610283615" fill="#1f77b4"/><rect id="undefined - 2026-01-22" x="47.48138135074478" y="147.2625" height="362.7375" width="22.242909610283615" fill="#1f77b4"/><rect id="undefined - 2026-01-23" x="70.72281167108757" y="108.37500000000001" height="401.625" width="22.242909610283615" fill="#1f77b4"/><rect id="undefined - 2026-01-24" x="93.96424199143036" y="210.375" height="299.625" width="22.242909610283615" fill="#1f77b4"/><rect id="undefined - 2026-01-25" x="117.20567231177314" y="76.50000000000001" height="433.5" width="22.242909610283615" fill="#1f77b4"/><rect id="undefined - 2026-01-26" x="140.44710263211593" y="209.7375" height="300.2625" width="22.242909610283615" fill="#1f77b4"/><rect id="undefined - 2026-01-27" x="163.68853295245873" y="149.81249999999997" height="360.1875" width="22.242909610283615" fill="#1f77b4"/><rect id="undefined - 2026-01-28" x="186.9299632728015" y="252.45" height="257.55" width="22.242909610283615" fill="#1f77b4"/><rect id="undefined - 2026-01-29" x="210.17139359314427" y="110.92500000000001" height="399.075" width="22.242909610283615" fill="#1f77b4"/><rect id="undefined - 2026-01-30" x="233.41282391348707" y="210.375" height="299.625" width="22.242909610283615" fill="#1f77b4"/><rect id="undefined - 2026-01-31" x="256.6542542338299" y="58.01250000000001" height="451.9875" width="22.242909610283615" fill="#1f77b4"/><rect id="undefined - 2026-02-01" x="279.89568455417265" y="85.425" height="424.575" width="22.242909610283615" fill="#1f77b4"/><rect id="undefined - 2026-02-13" x="303.1371148745154" y="213.56249999999997" height="296.4375" width="22.242909610283615" fill="#1f77b4"/><rect id="undefined - 2026-02-14" x="326.37854519485825" y="245.43749999999997" height="264.5625" width="22.242909610283615" fill="#1f77b4"/><rect id="undefined - 2026-02-15" x="349.619975515201" y="227.5875" height="282.4125" width="22.242909610283615" fill="#1f77b4"/><rect id="undefined - 2026-02-16" x="372.8614058355438" y="239.0625" height="270.9375" width="22.242909610283615" fill="#1f77b4"/><rect id="undefined - 2026-02-17" x="396.10283615588656" y="264.5625" height="245.4375" width="22.242909610283615" fill="#1f77b4"/><rect id="undefined - 2026-02-18" x="419.34426647622934" y="232.68750000000003" height="277.3125" width="22.242909610283615" fill="#1f77b4"/><rect id="undefined - 2026-02-19" x="442.58569679657217" y="229.49999999999997" height="280.5" width="22.242909610283615" fill="#1f77b4"/><rect id="undefined - 2026-02-20" x="465.82712711691494" y="184.23749999999998" height="325.76250000000005" width="22.242909610283615" fill="#1f77b4"/><rect id="undefined - 2026-02-21" x="489.0685574372577" y="219.9375" height="290.0625" width="22.242909610283615" fill="#1f77b4"/><rect id="undefined - 2026-02-22" x="512.3099877576005" y="101.99999999999997" height="408" width="22.242909610283615" fill="#1f77b4"/><rect id="undefined - 2026-02-23" x="535.5514180779433" y="232.68750000000003" height="277.3125" width="22.242909610283615" fill="#1f77b4"/><rect id="undefined - 2026-02-24" x="558.7928483982861" y="280.5" height="229.5" width="22.242909610283615" fill="#1f77b4"/><rect id="undefined - 2026-02-25" x="582.0342787186289" y="261.375" height="248.625" width="22.242909610283615" fill="#1f77b4"/><rect id="undefined - 2026-02-26" x="605.2757090389716" y="261.375" height="248.625" width="22.242909610283615" fill="#1f77b4"/><rect id="undefined - 2026-02-27" x="628.5171393593145" y="178.5" height="331.5" width="22.242909610283615" fill="#1f77b4"/><rect id="undefined - 2026-02-28" x="651.7585696796573" y="207.1875" height="302.8125" width="22.242909610283615" fill="#1f77b4"/></g><g id="xAxis" transform="translate(0,510)" fill="none" font-size="10" font-family="sans-serif" text-anchor="middle"><path class="domain" stroke="currentColor" d="M0,0H675"/><g class="tick" opacity="1" transform="translate(12.119975515201018,0)"><line stroke="currentColor" y2="6"/><text fill="currentColor" y="9" dy="0.71em">2026-01-20</text></g><g class="tick" opacity="1" transform="translate(35.361405835543806,0)"><line stroke="currentColor" y2="6"/><text fill="currentColor" y="9" dy="0.71em">2026-01-21</text></g><g class="tick" opacity="1" transform="translate(58.60283615588659,0)"><line stroke="currentColor" y2="6"/><text fill="currentColor" y="9" dy="0.71em">2026-01-22</text></g><g class="tick" opacity="1" transform="translate(81.84426647622938,0)"><line stroke="currentColor" y2="6"/><text fill="currentColor" y="9" dy="0.71em">2026-01-23</text></g><g class="tick" opacity="1" transform="translate(105.08569679657217,0)"><line stroke="currentColor" y2="6"/><text fill="currentColor" y="9" dy="0.71em">2026-01-24</text></g><g class="tick" opacity="1" transform="translate(128.32712711691494,0)"><line stroke="currentColor" y2="6"/><text fill="currentColor" y="9" dy="0.71em">2026-01-25</text></g><g class="tick" opacity="1" transform="translate(151.56855743725774,0)"><line stroke="currentColor" y2="6"/><text fill="currentColor" y="9" dy="0.71em">2026-01-26</text></g><g class="tick" opacity="1" transform="translate(174.80998775760054,0)"><line stroke="currentColor" y2="6"/><text fill="currentColor" y="9" dy="0.71em">2026-01-27</text></g><g class="tick" opacity="1" transform="translate(198.0514180779433,0)"><line stroke="currentColor" y2="6"/><text fill="currentColor" y="9" dy="0.71em">2026-01-28</text></g><g class="tick" opacity="1" transform="translate(221.29284839828608,0)"><line stroke="currentColor" y2="6"/><text fill="currentColor" y="9" dy="0.71em">2026-01-29</text></g><g class="tick" opacity="1" transform="translate(244.53427871862888,0)"><line stroke="currentColor" y2="6"/><text fill="currentColor" y="9" dy="0.71em">2026-01-30</text></g><g class="tick" opacity="1" transform="translate(267.7757090389717,0)"><line stroke="currentColor" y2="6"/><text fill="currentColor" y="9" dy="0.71em">2026-01-31</text></g><g class="tick" opacity="1" transform="translate(291.01713935931446,0)"><line stroke="currentColor" y2="6"/><text fill="currentColor" y="9" dy="0.71em">2026-02-01</text></g><g class="tick" opacity="1" transform="translate(314.2585696796572,0)"><line stroke="currentColor" y2="6"/><text fill="currentColor" y="9" dy="0.71em">2026-02-13</text></g><g class="tick" opacity="1" transform="translate(337.50000000000006,0)"><line stroke="currentColor" y2="6"/><text fill="currentColor" y="9" dy="0.71em">2026-02-14</text></g><g class="tick" opacity="1" transform="translate(360.74143032034283,0)"><line stroke="currentColor" y2="6"/><text fill="currentColor" y="9" dy="0.71em">2026-02-15</text></g><g class="tick" opacity="1" transform="translate(383.9828606406856,0)"><line stroke="currentColor" y2="6"/><text fill="currentColor" y="9" dy="0.71em">2026-02-16</text></g><g class="tick" opacity="1" transform="translate(407.2242909610284,0)"><line stroke="currentColor" y2="6"/><text fill="currentColor" y="9" dy="0.71em">2026-02-17</text></g><g class="tick" opacity="1" transform="translate(430.46572128137115,0)"><line stroke="currentColor" y2="6"/><text fill="currentColor" y="9" dy="0.71em">2026-02-18</text></g><g class="tick" opacity="1" transform="translate(453.707151601714,0)"><line stroke="currentColor" y2="6"/><text fill="currentColor" y="9" dy="0.71em">2026-02-19</text></g><g class="tick" opacity="1" transform="translate(476.94858192205675,0)"><line stroke="currentColor" y2="6"/><text fill="currentColor" y="9" dy="0.71em">2026-02-20</text></g><g class="tick" opacity="1" transform="translate(500.1900122423995,0)"><line stroke="currentColor" y2="6"/><text fill="currentColor" y="9" dy="0.71em">2026-02-21</text></g><g class="tick" opacity="1" transform="translate(523.4314425627423,0)"><line stroke="currentColor" y2="6"/><text fill="currentColor" y="9" dy="0.71em">2026-02-22</text></g><g class="tick" opacity="1" transform="translate(546.672872883085,0)"><line stroke="currentColor" y2="6"/><text fill="currentColor" y="9" dy="0.71em">2026-02-23</text></g><g class="tick" opacity="1" transform="translate(569.9143032034278,0)"><line stroke="currentColor" y2="6"/><text fill="currentColor" y="9" dy="0.71em">2026-02-24</text></g><g class="tick" opacity="1" transform="translate(593.1557335237707,0)"><line stroke="currentColor" y2="6"/><text fill="currentColor" y="9" dy="0.71em">2026-02-25</text></g><g class="tick" opacity="1" transform="translate(616.3971638441134,0)"><line stroke="currentColor" y2="6"/><text fill="currentColor" y="9" dy="0.71em">2026-02-26</text></g><g class="tick" opacity="1" transform="translate(639.6385941644562,0)"><line stroke="currentColor" y2="6"/><text fill="currentColor" y="9" dy="0.71em">2026-02-27</text></g><g class="tick" opacity="1" transform="translate(662.880024484799,0)"><line stroke="currentColor" y2="6"/><text fill="currentColor" y="9" dy="0.71em">2026-02-28</text></g><text x="675" y="-4" text-anchor="end" style="font-family: Arial, sans-serif; font-size: 12px; fill: rgb(123, 123, 123); font-weight: bold;">Fecha</text></g><g id="yAxis" fill="none" font-size="10" font-family="sans-serif" text-anchor="end"><path class="domain" stroke="currentColor" d="M-6,510H0V0H-6"/><g class="tick" opacity="1" transform="translate(0,510)"><line stroke="currentColor" x2="-6"/><text fill="currentColor" x="-9" dy="0.32em">0</text></g><g class="tick" opacity="1" transform="translate(0,446.25)"><line stroke="currentColor" x2="-6"/><text fill="currentColor" x="-9" dy="0.32em">500</text></g><g class="tick" opacity="1" transform="translate(0,382.5)"><line stroke="currentColor" x2="-6"/><text fill="currentColor" x="-9" dy="0.32em">1,000</text></g><g class="tick" opacity="1" transform="translate(0,318.75)"><line stroke="currentColor" x2="-6"/><text fill="currentColor" x="-9" dy="0.32em">1,500</text></g><g class="tick" opacity="1" transform="translate(0,255)"><line stroke="currentColor" x2="-6"/><text fill="currentColor" x="-9" dy="0.32em">2,000</text></g><g class="tick" opacity="1" transform="translate(0,191.25)"><line stroke="currentColor" x2="-6"/><text fill="currentColor" x="-9" dy="0.32em">2,500</text></g><g class="tick" opacity="1" transform="translate(0,127.5)"><line stroke="currentColor" x2="-6"/><text fill="currentColor" x="-9" dy="0.32em">3,000</text></g><g class="tick" opacity="1" transform="translate(0,63.75)"><line stroke="currentColor" x2="-6"/><text fill="currentColor" x="-9" dy="0.32em">3,500</text></g><g class="tick" opacity="1" transform="translate(0,0)"><line stroke="currentColor" x2="-6"/><text fill="currentColor" x="-9" dy="0.32em">4,000</text></g><text x="4" text-anchor="start" dominant-baseline="hanging" style="font-family: Arial, sans-serif; font-size: 12px; fill: rgb(123, 123, 123); font-weight: bold;">Volumen (ml) [sum]</text></g></g></g></g></svg>