<svg xmlns="http://www.w3.org/2000/svg" width="805" height="600"><rect width="805" height="600" x="0" y="0" fill="#FFFFFF" id="background"/><g id="viz"><g transform="translate(0,0)"><g transform="translate(50,20)"><g class="bars"><rect id="undefined - 2026-03-07" x="0.9986595174262334" y="175" height="385" width="56.232212827387094" fill="#1f77b4"/><rect id="undefined - 2026-03-08" x="58.229531862239604" y="213.5" height="346.5" width="56.232212827387094" fill="#1f77b4"/><rect id="undefined - 2026-03-09" x="115.46040420705297" y="161.69999999999996" height="398.30000000000007" width="56.232212827387094" fill="#1f77b4"/><rect id="undefined - 2026-03-10" x="172.69127655186634" y="119.00000000000001" height="441" width="56.232212827387094" fill="#1f77b4"/><rect id="undefined - 2026-03-11" x="229.92214889667972" y="231" height="329" width="56.232212827387094" fill="#1f77b4"/><rect id="undefined - 2026-03-12" x="287.1530212414931" y="84.00000000000001" height="476" width="56.232212827387094" fill="#1f77b4"/><rect id="undefined - 2026-03-13" x="344.38389358630644" y="230.3" height="329.7" width="56.232212827387094" fill="#1f77b4"/><rect id="undefined - 2026-03-14" x="401.61476593111985" y="164.49999999999997" height="395.5" width="56.232212827387094" fill="#1f77b4"/><rect id="undefined - 2026-03-15" x="458.8456382759332" y="277.2" height="282.8" width="56.232212827387094" fill="#1f77b4"/><rect id="undefined - 2026-03-16" x="516.0765106207466" y="121.80000000000001" height="438.2" width="56.232212827387094" fill="#1f77b4"/><rect id="undefined - 2026-03-17" x="573.30738296556" y="231" height="329" width="56.232212827387094" fill="#1f77b4"/><rect id="undefined - 2026-03-18" x="630.5382553103734" y="63.70000000000001" height="496.3" width="56.232212827387094" fill="#1f77b4"/><rect id="undefined - 2026-03-19" x="687.7691276551866" y="93.79999999999998" height="466.20000000000005" width="56.232212827387094" fill="#1f77b4"/></g><g id="xAxis" transform="translate(0,560)" fill="none" font-size="10" font-family="sans-serif" text-anchor="middle"><path class="domain" stroke="currentColor" d="M0,0H745"/><g class="tick" opacity="1" transform="translate(29.11476593111978,0)"><line stroke="currentColor" y2="6"/><text fill="currentColor" y="9" dy="0.71em">2026-03-07</text></g><g class="tick" opacity="1" transform="translate(86.34563827593315,0)"><line stroke="currentColor" y2="6"/><text fill="currentColor" y="9" dy="0.71em">2026-03-08</text></g><g class="tick" opacity="1" transform="translate(143.57651062074652,0)"><line stroke="currentColor" y2="6"/><text fill="currentColor" y="9" dy="0.71em">2026-03-09</text></g><g class="tick" opacity="1" transform="translate(200.8073829655599,0)"><line stroke="currentColor" y2="6"/><text fill="currentColor" y="9" dy="0.71em">2026-03-10</text></g><g class="tick" opacity="1" transform="translate(258.03825531037324,0)"><line stroke="currentColor" y2="6"/><text fill="currentColor" y="9" dy="0.71em">2026-03-11</text></g><g class="tick" opacity="1" transform="translate(315.26912765518665,0)"><line stroke="currentColor" y2="6"/><text fill="currentColor" y="9" dy="0.71em">2026-03-12</text></g><g class="tick" opacity="1" transform="translate(372.5,0)"><line stroke="currentColor" y2="6"/><text fill="currentColor" y="9" dy="0.71em">2026-03-13</text></g><g class="tick" opacity="1" transform="translate(429.7308723448134,0)"><line stroke="currentColor" y2="6"/><text fill="currentColor" y="9" dy="0.71em">2026-03-14</text></g><g class="tick" opacity="1" transform="translate(486.96174468962676,0)"><line stroke="currentColor" y2="6"/><text fill="currentColor" y="9" dy="0.71em">2026-03-15</text></g><g class="tick" opacity="1" transform="translate(544.1926170344401,0)"><line stroke="currentColor" y2="6"/><text fill="currentColor" y="9" dy="0.71em">2026-03-16</text></g><g class="tick" opacity="1" transform="translate(601.4234893792535,0)"><line stroke="currentColor" y2="6"/><text fill="currentColor" y="9" dy="0.71em">2026-03-17</text></g><g class="tick" opacity="1" transform="translate(658.6543617240669,0)"><line stroke="currentColor" y2="6"/><text fill="currentColor" y="9" dy="0.71em">2026-03-18</text></g><g class="tick" opacity="1" transform="translate(715.8852340688801,0)"><line stroke="currentColor" y2="6"/><text fill="currentColor" y="9" dy="0.71em">2026-03-19</text></g><text x="745" y="-4" text-anchor="end" style="font-family: Arial, sans-serif; font-size: 12px; fill: rgb(123, 123, 123); font-weight: bold;">Fecha</text></g><g id="yAxis" fill="none" font-size="10" font-family="sans-serif" text-anchor="end"><path class="domain" stroke="currentColor" d="M-6,560H0V0H-6"/><g class="tick" opacity="1" transform="translate(0,560)"><line stroke="currentColor" x2="-6"/><text fill="currentColor" x="-9" dy="0.32em">0</text></g><g class="tick" opacity="1" transform="translate(0,490)"><line stroke="currentColor" x2="-6"/><text fill="currentColor" x="-9" dy="0.32em">500</text></g><g class="tick" opacity="1" transform="translate(0,420)"><line stroke="currentColor" x2="-6"/><text fill="currentColor" x="-9" dy="0.32em">1,000</text></g><g class="tick" opacity="1" transform="translate(0,350)"><line stroke="currentColor" x2="-6"/><text fill="currentColor" x="-9" dy="0.32em">1,500</text></g><g class="tick" opacity="1" transform="translate(0,280)"><line stroke="currentColor" x2="-6"/><text fill="currentColor" x="-9" dy="0.32em">2,000</text></g><g class="tick" opacity="1" transform="translate(0,210)"><line stroke="currentColor" x2="-6"/><text fill="currentColor" x="-9" dy="0.32em">2,500</text></g><g class="tick" opacity="1" transform="translate(0,140)"><line stroke="currentColor" x2="-6"/><text fill="currentColor" x="-9" dy="0.32em">3,000</text></g><g class="tick" opacity="1" transform="translate(0,70)"><line stroke="currentColor" x2="-6"/><text fill="currentColor" x="-9" dy="0.32em">3,500</text></g><g class="tick" opacity="1" transform="translate(0,0)"><line stroke="currentColor" x2="-6"/><text fill="currentColor" x="-9" dy="0.32em">4,000</text></g><text x="4" text-anchor="start" dominant-baseline="hanging" style="font-family: Arial, sans-serif; font-size: 12px; fill: rgb(123, 123, 123); font-weight: bold;">Volumen (ml) [sum]</text></g></g><text y="4" x="4" style="font-family: Arial, sans-serif; font-size: 12px; fill: black; font-weight: bold; dominant-baseline: hanging;"/></g></g></svg>